<?xml version="1.0" encoding="utf-8"?>
<!-- Generator: Adobe Illustrator 18.0.0, SVG Export Plug-In . SVG Version: 6.00 Build 0)  -->
<!DOCTYPE svg PUBLIC "-//W3C//DTD SVG 1.1//EN" "http://www.w3.org/Graphics/SVG/1.1/DTD/svg11.dtd">
<svg version="1.1" id="Layer_1" xmlns="http://www.w3.org/2000/svg" xmlns:xlink="http://www.w3.org/1999/xlink" x="0px" y="0px"
	 viewBox="0 0 178.8 42.6" enable-background="new 0 0 178.8 42.6" xml:space="preserve">
<path fill-rule="evenodd" clip-rule="evenodd" d="M38.5,6.6H46c5.4,0,7.9,2.8,7.9,7.9c0,2.5-1.1,5.1-3.5,6.1
	c2.6,1.1,4.1,3.1,4.1,6.9c0,4.9-2.1,8.5-7.9,8.5h-8V6.6L38.5,6.6z M43.6,18.7h1.8c1.9,0,3.3-1.3,3.3-3.8c0-2.7-1-4.2-3.2-4.2h-1.9
	V18.7L43.6,18.7z M43.6,31.8h2.1c2.7,0,3.7-1.5,3.7-4.4c0-3-1.2-4.5-4.2-4.5h-1.7V31.8L43.6,31.8z"/>
<polygon fill-rule="evenodd" clip-rule="evenodd" points="56.4,6.6 61,6.6 61,35.9 56.4,35.9 56.4,6.6 "/>
<path fill-rule="evenodd" clip-rule="evenodd" d="M77.7,14v21.9h-4.2v-2.1c-1.9,1.6-3,2.6-5.5,2.6c-2.4,0-3.9-1.8-3.9-4.6V14h4.6v17
	c0,1.1,0.6,1.6,1.6,1.6c1,0,1.9-0.6,3-1.4V14H77.7L77.7,14z"/>
<path fill-rule="evenodd" clip-rule="evenodd" d="M94.7,25.9h-9.6V29c0,2.6,0.9,3.6,2.5,3.6c1.7,0,2.6-1,2.6-3.6v-0.5h4.5
	c-0.1,4.6-2,7.9-7.1,7.9c-5.2,0-7-3.3-7-8.1v-6.5c0-4.8,1.8-8.1,7-8.1c5.3,0,7.1,3.3,7.1,8.1V25.9L94.7,25.9z M90.2,22.2V21
	c0-2.5-0.9-3.5-2.6-3.5c-1.6,0-2.5,1-2.5,3.5v1.2H90.2L90.2,22.2z"/>
<path fill-rule="evenodd" clip-rule="evenodd" d="M96.2,17.8V14h2.6V8.2h4.5V14h3v3.8h-3v12.6c0,1.2,0.5,1.8,1.6,1.8h1.5v3.9
	c-0.6,0.2-1.1,0.3-2.3,0.3c-3.4,0-5.3-1.6-5.3-5V17.8H96.2L96.2,17.8z"/>
<path fill-rule="evenodd" clip-rule="evenodd" d="M108.3,21.8c0-4.8,1.8-8.1,7-8.1c5.2,0,7.1,3.3,7.1,8.1v6.5c0,4.8-1.9,8.1-7.1,8.1
	c-5.2,0-7-3.3-7-8.1V21.8L108.3,21.8z M117.8,21c0-2.5-0.8-3.5-2.5-3.5c-1.6,0-2.5,1-2.5,3.5v8c0,2.6,0.9,3.6,2.5,3.6
	c1.7,0,2.5-1,2.5-3.6V21L117.8,21z"/>
<path fill-rule="evenodd" clip-rule="evenodd" d="M124.8,21.8c0-4.8,1.8-8.1,7-8.1c5.3,0,7.1,3.3,7.1,8.1v6.5c0,4.8-1.8,8.1-7.1,8.1
	c-5.2,0-7-3.3-7-8.1V21.8L124.8,21.8z M134.4,21c0-2.5-0.9-3.5-2.6-3.5c-1.6,0-2.5,1-2.5,3.5v8c0,2.6,0.9,3.6,2.5,3.6
	c1.7,0,2.6-1,2.6-3.6V21L134.4,21z"/>
<path fill-rule="evenodd" clip-rule="evenodd" d="M140.3,17.8V14h2.5V8.2h4.5V14h3.1v3.8h-3.1v12.6c0,1.2,0.6,1.8,1.6,1.8h1.6v3.9
	c-0.6,0.2-1.2,0.3-2.3,0.3c-3.4,0-5.4-1.6-5.4-5V17.8H140.3L140.3,17.8z"/>
<path fill-rule="evenodd" clip-rule="evenodd" d="M153.2,35.9V6.6h4.6v9.5c1.7-1.4,2.6-2.4,5.3-2.4c2.4,0,3.8,1.8,3.8,4.6v17.6h-4.5
	V19c0-1.1-0.6-1.6-1.7-1.6c-0.9,0-1.8,0.6-2.9,1.4v17.1H153.2L153.2,35.9z"/>
<path fill-rule="evenodd" clip-rule="evenodd" d="M17.5,10.5L21,14l-3.5,3.5V10.5L17.5,10.5z M17.5,32.1l3.5-3.5L17.5,25V32.1
	L17.5,32.1z M13.7,21.2l-7.6-7.6l2.2-2.2l6,6.1V3L25.4,14l-7.3,7.2l7.3,7.3l-11.1,11V25l-6,6.1l-2.2-2.2L13.7,21.2L13.7,21.2z
	 M15.7,42.6c9.3,0,15.7-4.4,15.7-21.3C31.4,4.4,25,0,15.7,0C6.5,0,0,4.4,0,21.2C0,38.1,6.5,42.6,15.7,42.6L15.7,42.6z"/>
<polygon fill-rule="evenodd" clip-rule="evenodd" points="169.1,6.6 169.1,7.2 168.3,7.2 168.3,10.3 167.6,10.3 167.6,7.2 
	166.7,7.2 166.7,6.6 169.1,6.6 "/>
<polygon fill-rule="evenodd" clip-rule="evenodd" points="170.1,10.3 170.1,6.6 171.1,6.6 171.7,9.1 171.7,9.1 172.4,6.6 173.4,6.6 
	173.4,10.3 172.7,10.3 172.7,7.4 172.7,7.4 172,10.3 171.4,10.3 170.7,7.4 170.7,7.4 170.7,10.3 170.1,10.3 "/>
</svg>
