<?xml version="1.0" encoding="utf-8"?>
<!-- Generator: Adobe Illustrator 18.0.0, SVG Export Plug-In . SVG Version: 6.00 Build 0)  -->
<!DOCTYPE svg PUBLIC "-//W3C//DTD SVG 1.1//EN" "http://www.w3.org/Graphics/SVG/1.1/DTD/svg11.dtd">
<svg version="1.1" id="Layer_1" xmlns="http://www.w3.org/2000/svg" xmlns:xlink="http://www.w3.org/1999/xlink" x="0px" y="0px"
	 viewBox="0 0 396 306" enable-background="new 0 0 396 306" xml:space="preserve">
<g>
	<path fill-rule="evenodd" clip-rule="evenodd" stroke="#020202" stroke-miterlimit="10" d="M306.2,191.2c15.8,0,31.7-5.5,41-15.4
		c5.2-5.6,16.4-22.3,12.2-32.6c-1.7-4.1-7.2-4.9-13.4-4.9c-3.2,0-6.7,0.2-9.9,0.2c-4.2,0-9-0.5-13.2-0.5c-2.9,0-5.6,0.3-7.8,1.1
		c-3.2,1.3-7.1,8.4-6.4,12.8c1.2,7.4,12.2,6.7,22.7,7.6c-2.3,7.6-10.2,11.1-18.2,11.1c-8,0-16.1-3.4-19.1-9.3
		c-10.2-20,9-40.4,27.1-40.4c7.1,0,14,3.2,19,10.7c0.2,0.7,0.7,1.2,1.7,1.2c0,0,0.1,0,0.1,0c1.6,0.3,3.1,0.5,4.6,0.5
		c8.6,0,14.8-5.2,12.9-15c-2.3-12.1-20.9-18.3-34.4-19.2c-1.3-0.1-2.5-0.1-3.8-0.1c-17,0-32.4,8-40.6,14.1c1.9-9.2,7-21.1,1.2-28.6
		c-3.4-4.4-12.8-6.6-22.4-6.6c-7.5,0-15.2,1.4-20.2,4.3c-5.8,3.4-12.3,10.5-18.1,16.3c-11.2,11.2-23.8,23.4-35,33.8
		c-6.2,5.8-13.7,11.5-16.9,18.1c-5.5,11.2,0.8,25.2,7.6,29.2c2.8,0.1,5.6,0.1,8.5,0.1c8.1,0,16.3-0.2,24.4-0.2
		c7.2,0,14.2,0.1,20.8,0.7c-2.4,11-8.1,24.9,2.3,30.3c2.7,1.4,6.8,2.2,10.9,2.2c4.6,0,9.3-1,12.4-3.4c8.4-6.4,6.5-22.5,11.1-33.8
		C276.1,186.2,291.1,191.2,306.2,191.2z M238.8,151.9c-10.7,0-21.4,0-32.1,0c12.7-13.9,27-26.3,40.2-39.6
		C245.7,124.7,240.8,138.4,238.8,151.9z"/>
	<path stroke="#020202" stroke-miterlimit="10" d="M221.4,199.9c0-0.9,0-1.8,0.1-2.8c0.1-3.6,0.5-8.1,1.8-12l0-0.2
		c-3.9-0.2-8.3-0.2-13.5-0.2c-4,0-8.1,0-12.1,0.1c-4,0-8.2,0.1-12.3,0.1c-3.2,0-6,0-8.6-0.1l-1.4,0l-1.2-0.7
		c-4.7-2.7-8.7-8.3-10.9-14.9c-2.4-7.5-2-15.1,1.1-21.4c3-6.1,8.7-11.2,14.2-16.1c1.4-1.2,2.6-2.4,3.9-3.5
		c11.4-10.7,24.1-23,34.8-33.7c1-1,2-2,3.1-3.1c3.3-3.4,6.7-6.8,10.1-9.7l-5.7-2.7c0,0-58.9-28.1-101.2,5.6c0,0,23.8-9,48.1,11.4
		c0,0,8.1,7.5,2.5,17.9c-6.1,11.2-20.4,4.3-20.4,4.3s-30.4-15.8-49.6-9.1c-17.5,6.1-40.7,57.6-85,29.9c0,0,3.5,16.7,22.5,23.6
		c19,6.9,31.2,3.7,46.8-5.3c15.5-9,35.2,2.2,35.9,15.3c0.6,11-5.4,24.2-31.7,11.6c0,0,0.9,21.8,23.4,23.4
		c22.5,1.6,39.4-8.8,47.5-11.6c8.1-2.8,17.5-3.9,20.4,0.7c2.1,3.3,1.8,7.9-1.2,11c-3.6,3.9-10.6,1.4-10.6,1.4s15.3,20.8,49.5-5.8
		c0,0-0.1-0.6-0.1-1.6C221.5,201,221.5,200.4,221.4,199.9z"/>
	<g>
		<path stroke="#020202" stroke-width="3" d="M284.9,217.2c0.7,0,1.2,0.3,1.6,0.8c0.4,0.5,0.5,1.1,0.3,1.8c-0.2,0.7-0.5,1.4-1.1,1.9
			c-0.6,0.5-1.2,0.8-1.9,0.8l-11.6,0c-0.7,0-1.3-0.2-1.6-0.8c-0.4-0.5-0.5-1.1-0.4-1.9l4.3-19.3c0.2-0.7,0.5-1.3,1.2-1.8
			c0.6-0.5,1.3-0.8,2-0.8c0.7,0,1.2,0.3,1.6,0.8c0.4,0.5,0.5,1.1,0.4,1.8l-3.7,16.8L284.9,217.2z"/>
		<path stroke="#020202" stroke-width="3" d="M309.3,197.9c0.7,0,1.3,0.3,1.7,0.8c0.4,0.5,0.5,1.1,0.3,1.8c-0.2,0.7-0.5,1.4-1.1,1.8
			c-0.6,0.5-1.3,0.7-2,0.7l-4.2,0l-3.7,16.8c-0.2,0.7-0.5,1.4-1.1,1.9c-0.6,0.5-1.2,0.8-2,0.8c-0.7,0-1.3-0.3-1.6-0.8
			c-0.4-0.5-0.5-1.1-0.3-1.9l3.7-16.8l-4.2,0c-0.7,0-1.2-0.2-1.6-0.7c-0.4-0.5-0.5-1.1-0.3-1.8c0.2-0.7,0.5-1.3,1.1-1.8
			c0.6-0.5,1.3-0.8,2-0.8L309.3,197.9z"/>
		<path stroke="#020202" stroke-width="3" d="M327.2,217.3c0.7,0,1.2,0.3,1.6,0.8c0.4,0.5,0.5,1.1,0.3,1.8c-0.2,0.7-0.5,1.4-1.1,1.9
			c-0.6,0.5-1.3,0.7-2,0.7l-10.8,0c-0.7,0-1.2-0.2-1.6-0.8c-0.4-0.5-0.5-1.1-0.4-1.9l4.3-19.3c0.1-0.7,0.5-1.3,1.1-1.8
			c0.6-0.5,1.3-0.8,2-0.8l10.8,0c0.7,0,1.2,0.3,1.6,0.8c0.4,0.5,0.5,1.1,0.3,1.8c-0.2,0.7-0.5,1.4-1.1,1.8c-0.6,0.5-1.2,0.7-1.9,0.7
			l-8.3,0l-1,4.4l5.8,0c0.7,0,1.2,0.3,1.6,0.8c0.4,0.5,0.5,1.1,0.3,1.8c-0.2,0.7-0.5,1.3-1.2,1.8c-0.6,0.5-1.3,0.7-1.9,0.7l-5.8,0
			l-1,4.6L327.2,217.3z"/>
	</g>
</g>
</svg>
