<?xml version="1.0" encoding="utf-8"?>
<!-- Generator: Adobe Illustrator 18.0.0, SVG Export Plug-In . SVG Version: 6.00 Build 0)  -->
<!DOCTYPE svg PUBLIC "-//W3C//DTD SVG 1.1//EN" "http://www.w3.org/Graphics/SVG/1.1/DTD/svg11.dtd">
<svg version="1.1" id="Capa_1" xmlns="http://www.w3.org/2000/svg" xmlns:xlink="http://www.w3.org/1999/xlink" x="0px" y="0px"
	 viewBox="0 0 278.9 268" enable-background="new 0 0 278.9 268" xml:space="preserve">
<circle fill="#931D2F" cx="195.2" cy="207.9" r="29.2"/>
<path opacity="0.5" fill="#231F20" d="M224.3,209.9L206.3,192L184,224.4l12.6,12.6C211.4,236.3,223.2,224.6,224.3,209.9z"/>
<g>
	<rect x="184" y="220.9" fill="#4D4D4F" width="22.3" height="3.5"/>
	<g>
		<circle fill="#672058" cx="187.1" cy="222.9" r="0.9"/>
		<circle opacity="0.5" fill="#231F20" cx="187.1" cy="222.9" r="0.9"/>
		<circle fill="#672058" cx="190.8" cy="222.9" r="0.9"/>
		<circle opacity="0.5" fill="#231F20" cx="190.8" cy="222.9" r="0.9"/>
		<circle fill="#672058" cx="195" cy="222.9" r="0.9"/>
		<circle opacity="0.5" fill="#231F20" cx="195" cy="222.9" r="0.9"/>
		<circle fill="#672058" cx="199.1" cy="222.9" r="0.9"/>
		<circle opacity="0.5" fill="#231F20" cx="199.1" cy="222.9" r="0.9"/>
		<circle fill="#672058" cx="203.3" cy="222.9" r="0.9"/>
		<circle opacity="0.5" fill="#231F20" cx="203.3" cy="222.9" r="0.9"/>
	</g>
	<rect x="184" y="192" fill="#393938" width="3.3" height="29.1"/>
	<polyline fill="#4D4D4F" stroke="#FFFFFF" stroke-width="9.438618e-02" stroke-miterlimit="10" points="184,192.7 186.6,192.7 
		186.6,204.1 184,204.1 	"/>
	<rect x="187.4" y="192" fill="#414042" width="15.6" height="29.1"/>
	<rect x="184" y="206.1" fill="#4D4D4F" width="2.6" height="13"/>
	<rect x="203" y="192" fill="#393938" width="3.3" height="29.1"/>
	<polyline fill="#4D4D4F" stroke="#FFFFFF" stroke-width="9.438618e-02" stroke-miterlimit="10" points="206.3,192.7 203.8,192.7 
		203.8,204.1 206.3,204.1 	"/>
	<rect x="203.7" y="206.1" fill="#4D4D4F" width="2.6" height="13"/>
</g>
<g>
	<circle fill="#FFFFFF" cx="149.2" cy="238.9" r="30.9"/>
	<circle fill="#AA212E" cx="149.2" cy="238.9" r="29.2"/>
	<path opacity="0.5" fill="#231F20" d="M178.3,240.9L160.3,223L138,255.4l12.6,12.6C165.4,267.3,177.2,255.6,178.3,240.9z"/>
	<g>
		<rect x="138" y="251.9" fill="#4D4D4F" width="22.3" height="3.5"/>
		<circle fill="#AE4B58" cx="141.1" cy="253.9" r="0.9"/>
		<circle opacity="0.5" fill="#231F20" cx="141.1" cy="253.9" r="0.9"/>
		<circle fill="#AE4B58" cx="144.8" cy="253.9" r="0.9"/>
		<circle opacity="0.5" fill="#231F20" cx="144.8" cy="253.9" r="0.9"/>
		<circle fill="#AE4B58" cx="149" cy="253.9" r="0.9"/>
		<circle opacity="0.5" fill="#231F20" cx="149" cy="253.9" r="0.9"/>
		<circle fill="#AE4B58" cx="153.1" cy="253.9" r="0.9"/>
		<circle opacity="0.5" fill="#231F20" cx="153.1" cy="253.9" r="0.9"/>
		<circle fill="#AE4B58" cx="157.3" cy="253.9" r="0.9"/>
		<circle opacity="0.5" fill="#231F20" cx="157.3" cy="253.9" r="0.9"/>
		<rect x="138" y="223" fill="#393938" width="3.3" height="29.1"/>
		<polyline fill="#4D4D4F" stroke="#DCDDDE" stroke-width="9.438618e-02" stroke-miterlimit="10" points="138,223.7 140.6,223.7 
			140.6,235.1 138,235.1 		"/>
		<rect x="141.4" y="223" fill="#414042" width="15.6" height="29.1"/>
		<rect x="138" y="237.1" fill="#4D4D4F" width="2.6" height="13"/>
		<rect x="157" y="223" fill="#393938" width="3.3" height="29.1"/>
		<polyline fill="#4D4D4F" stroke="#FFFFFF" stroke-width="9.438618e-02" stroke-miterlimit="10" points="160.3,223.7 157.8,223.7 
			157.8,235.1 160.3,235.1 		"/>
		<rect x="157.7" y="237.1" fill="#4D4D4F" width="2.6" height="13"/>
	</g>
</g>
<g>
	<circle fill="#FFFFFF" cx="240.2" cy="238.9" r="30.9"/>
	<circle fill="#AA212E" cx="240.2" cy="238.9" r="29.2"/>
	<path opacity="0.5" fill="#231F20" d="M269.3,240.9L251.3,223L229,255.4l12.6,12.6C256.4,267.3,268.2,255.6,269.3,240.9z"/>
	<g>
		<rect x="229" y="251.9" fill="#4D4D4F" width="22.3" height="3.5"/>
		<g>
			<circle fill="#8E3858" cx="232.1" cy="253.9" r="0.9"/>
			<circle opacity="0.5" fill="#231F20" cx="232.1" cy="253.9" r="0.9"/>
			<circle fill="#8E3858" cx="235.8" cy="253.9" r="0.9"/>
			<circle opacity="0.5" fill="#231F20" cx="235.8" cy="253.9" r="0.9"/>
			<circle fill="#8E3858" cx="240" cy="253.9" r="0.9"/>
			<circle opacity="0.5" fill="#231F20" cx="240" cy="253.9" r="0.9"/>
			<circle fill="#8E3858" cx="244.1" cy="253.9" r="0.9"/>
			<circle opacity="0.5" fill="#231F20" cx="244.1" cy="253.9" r="0.9"/>
			<circle fill="#8E3858" cx="248.3" cy="253.9" r="0.9"/>
			<circle opacity="0.5" fill="#231F20" cx="248.3" cy="253.9" r="0.9"/>
		</g>
		<rect x="229" y="223" fill="#393938" width="3.3" height="29.1"/>
		<polyline fill="#4D4D4F" stroke="#FFFFFF" stroke-width="9.438618e-02" stroke-miterlimit="10" points="229,223.7 231.6,223.7 
			231.6,235.1 229,235.1 		"/>
		<rect x="232.4" y="223" fill="#414042" width="15.6" height="29.1"/>
		<rect x="229" y="237.1" fill="#4D4D4F" width="2.6" height="13"/>
		<rect x="248" y="223" fill="#393938" width="3.3" height="29.1"/>
		<polyline fill="#4D4D4F" stroke="#FFFFFF" stroke-width="9.438618e-02" stroke-miterlimit="10" points="251.3,223.7 248.8,223.7 
			248.8,235.1 251.3,235.1 		"/>
		<rect x="248.7" y="237.1" fill="#4D4D4F" width="2.6" height="13"/>
	</g>
</g>
<g>
	<path fill="#231F20" d="M178.9,156.5c0.4,0,0.7,0.3,0.8,0.6l0,0.1l0,0.1c0,4.3-3.5,7.8-7.7,7.8c-0.4,0-0.7-0.3-0.7-0.8
		c0-0.5,0.3-0.7,0.7-0.8c3.5,0,6.2-2.8,6.2-6.2l0-0.1C178.2,156.8,178.5,156.5,178.9,156.5z"/>
	<path fill="#231F20" d="M171.9,163.9c0,0-0.2,0-0.2,0.3c0,0.3,0.2,0.3,0.2,0.3c4,0,7.3-3.3,7.3-7.3c0,0,0,0,0,0
		c0,0-0.1-0.3-0.3-0.3c-0.3,0-0.3,0.3-0.3,0.3c0,0,0,0,0,0C178.6,160.9,175.6,163.9,171.9,163.9z"/>
</g>
<g>
	<path fill="#231F20" d="M183.7,156.6c0.4,0,0.7,0.3,0.8,0.7l0,0.4l0,0c0,6.7-5.4,12.1-12.1,12.1h0l0,0c-0.3,0-0.6-0.3-0.6-0.7
		c0-0.4,0.3-0.7,0.5-0.8l0.1,0l0.1,0c5.8,0,10.6-4.7,10.6-10.6l0-0.5C183,156.9,183.3,156.6,183.7,156.6z"/>
	<path fill="#231F20" d="M172.4,168.7c0,0-0.2,0.1-0.2,0.3c0,0.3,0.2,0.3,0.2,0.3c6.4,0,11.7-5.2,11.7-11.7c0,0,0,0,0,0
		c0,0,0-0.3-0.3-0.3c-0.3,0-0.3,0.3-0.3,0.3c0,0,0,0,0,0C183.4,163.8,178.5,168.7,172.4,168.7z"/>
</g>
<g>
	<line fill="none" stroke="#656769" stroke-width="1.8427" stroke-miterlimit="10" x1="162.1" y1="144.6" x2="171.3" y2="156.1"/>
	<circle fill="#59595B" cx="171.8" cy="156.9" r="2.9"/>
	<line fill="none" stroke="#3F3F3F" stroke-width="5.4956" stroke-miterlimit="10" x1="125.5" y1="102.8" x2="100.8" y2="114.8"/>
	<line fill="none" stroke="#575A5B" stroke-width="3.9038" stroke-miterlimit="10" x1="149.3" y1="129.3" x2="145.1" y2="118.4"/>
	<g>
		
			<rect x="0.2" y="123.5" transform="matrix(0.9006 -0.4346 0.4346 0.9006 -53.8246 37.2818)" fill="#F1F9FE" stroke="#97989B" stroke-width="2.0604" stroke-miterlimit="10" width="108.8" height="25.8"/>
		<line fill="none" stroke="#97989B" stroke-width="1.407" stroke-miterlimit="10" x1="5" y1="146.2" x2="16" y2="169"/>
		<line fill="none" stroke="#97989B" stroke-width="1.407" stroke-miterlimit="10" x1="11.3" y1="143.2" x2="22.3" y2="166"/>
		<line fill="none" stroke="#97989B" stroke-width="1.407" stroke-miterlimit="10" x1="17.7" y1="140.1" x2="28.7" y2="162.9"/>
		<line fill="none" stroke="#97989B" stroke-width="1.407" stroke-miterlimit="10" x1="24" y1="137.1" x2="35" y2="159.9"/>
		<line fill="none" stroke="#97989B" stroke-width="1.407" stroke-miterlimit="10" x1="30.3" y1="134" x2="41.3" y2="156.8"/>
		<line fill="none" stroke="#97989B" stroke-width="1.407" stroke-miterlimit="10" x1="36.7" y1="130.9" x2="47.7" y2="153.7"/>
		<line fill="none" stroke="#97989B" stroke-width="1.407" stroke-miterlimit="10" x1="43" y1="127.9" x2="54" y2="150.7"/>
		<line fill="none" stroke="#97989B" stroke-width="1.407" stroke-miterlimit="10" x1="49.3" y1="124.8" x2="60.3" y2="147.6"/>
		<line fill="none" stroke="#97989B" stroke-width="1.407" stroke-miterlimit="10" x1="54.4" y1="122.4" x2="65.4" y2="145.2"/>
		<line fill="none" stroke="#97989B" stroke-width="1.407" stroke-miterlimit="10" x1="62" y1="118.7" x2="73" y2="141.5"/>
		<line fill="none" stroke="#97989B" stroke-width="1.407" stroke-miterlimit="10" x1="68.3" y1="115.6" x2="79.4" y2="138.5"/>
		<line fill="none" stroke="#97989B" stroke-width="1.407" stroke-miterlimit="10" x1="74.7" y1="112.6" x2="85.7" y2="135.4"/>
		<line fill="none" stroke="#97989B" stroke-width="1.407" stroke-miterlimit="10" x1="79.7" y1="110.1" x2="90.8" y2="133"/>
		<line fill="none" stroke="#97989B" stroke-width="1.407" stroke-miterlimit="10" x1="86.1" y1="107.1" x2="97.1" y2="129.9"/>
		<line fill="none" stroke="#97989B" stroke-width="1.407" stroke-miterlimit="10" x1="92.4" y1="104" x2="103.4" y2="126.8"/>
		<line fill="none" stroke="#97989B" stroke-width="1.407" stroke-miterlimit="10" x1="2.6" y1="155.9" x2="101.5" y2="108.2"/>
		<line fill="none" stroke="#97989B" stroke-width="1.407" stroke-miterlimit="10" x1="6.3" y1="163.5" x2="105.2" y2="115.9"/>
	</g>
	<line fill="none" stroke="#3F3F3F" stroke-width="5.4956" stroke-miterlimit="10" x1="148.3" y1="93.9" x2="174.6" y2="85.8"/>
	<g>
		
			<rect x="168.6" y="57.3" transform="matrix(-0.9557 0.2945 -0.2945 -0.9557 456.9117 71.5566)" fill="#F1F9FE" stroke="#97989B" stroke-width="2.0604" stroke-miterlimit="10" width="108.8" height="25.8"/>
		<line fill="none" stroke="#97989B" stroke-width="1.407" stroke-miterlimit="10" x1="266.2" y1="43.6" x2="273.6" y2="67.8"/>
		<line fill="none" stroke="#97989B" stroke-width="1.407" stroke-miterlimit="10" x1="259.4" y1="45.7" x2="266.9" y2="69.9"/>
		<line fill="none" stroke="#97989B" stroke-width="1.407" stroke-miterlimit="10" x1="252.7" y1="47.8" x2="260.2" y2="72"/>
		<line fill="none" stroke="#97989B" stroke-width="1.407" stroke-miterlimit="10" x1="246" y1="49.9" x2="253.4" y2="74.1"/>
		<line fill="none" stroke="#97989B" stroke-width="1.407" stroke-miterlimit="10" x1="239.3" y1="51.9" x2="246.7" y2="76.1"/>
		<line fill="none" stroke="#97989B" stroke-width="1.407" stroke-miterlimit="10" x1="232.5" y1="54" x2="240" y2="78.2"/>
		<line fill="none" stroke="#97989B" stroke-width="1.407" stroke-miterlimit="10" x1="225.8" y1="56.1" x2="233.3" y2="80.3"/>
		<line fill="none" stroke="#97989B" stroke-width="1.407" stroke-miterlimit="10" x1="219.1" y1="58.1" x2="226.6" y2="82.4"/>
		<line fill="none" stroke="#97989B" stroke-width="1.407" stroke-miterlimit="10" x1="213.7" y1="59.8" x2="221.2" y2="84"/>
		<line fill="none" stroke="#97989B" stroke-width="1.407" stroke-miterlimit="10" x1="205.6" y1="62.3" x2="213.1" y2="86.5"/>
		<line fill="none" stroke="#97989B" stroke-width="1.407" stroke-miterlimit="10" x1="198.9" y1="64.4" x2="206.4" y2="88.6"/>
		<line fill="none" stroke="#97989B" stroke-width="1.407" stroke-miterlimit="10" x1="192.2" y1="66.4" x2="199.7" y2="90.6"/>
		<line fill="none" stroke="#97989B" stroke-width="1.407" stroke-miterlimit="10" x1="186.8" y1="68.1" x2="194.3" y2="92.3"/>
		<line fill="none" stroke="#97989B" stroke-width="1.407" stroke-miterlimit="10" x1="180.1" y1="70.2" x2="187.6" y2="94.4"/>
		<line fill="none" stroke="#97989B" stroke-width="1.407" stroke-miterlimit="10" x1="173.4" y1="72.2" x2="180.8" y2="96.4"/>
		<line fill="none" stroke="#97989B" stroke-width="1.407" stroke-miterlimit="10" x1="274.5" y1="49.2" x2="169.6" y2="81.5"/>
		<line fill="none" stroke="#97989B" stroke-width="1.407" stroke-miterlimit="10" x1="277" y1="57.2" x2="172.1" y2="89.6"/>
	</g>
	<path fill="#231F20" d="M160.2,113.9l-27.7,10.9c-0.6,0.3-1.4-0.1-1.6-0.7l-15.2-38.8c-0.3-0.6,0.1-1.4,0.7-1.6L144,72.7
		c0.6-0.3,1.4,0.1,1.6,0.7l15.2,38.8C161.2,112.9,160.8,113.6,160.2,113.9z"/>
	<path fill="#231F20" d="M179.8,131.7c-7.8-9.4-21.8-10.9-31.4-3.2c-9.6,7.7-11.3,21.6-3.9,31.3L179.8,131.7z"/>
</g>
<g>
	<circle fill="#FFFFFF" cx="120.7" cy="44.4" r="44.4"/>
	<circle fill="#DC1F26" cx="120.7" cy="44.4" r="41.9"/>
	<path opacity="0.5" fill="#231F20" d="M162.5,47.3l-25.8-25.8l-32,46.6l18.1,18.1C144,85.2,161,68.4,162.5,47.3z"/>
	<g>
		<rect x="104.7" y="63.1" fill="#4D4D4F" width="32" height="5"/>
		<g>
			<circle fill="#A33559" cx="109" cy="65.9" r="1.2"/>
			<circle opacity="0.5" fill="#231F20" cx="109" cy="65.9" r="1.2"/>
			<circle fill="#A33559" cx="114.4" cy="65.9" r="1.2"/>
			<circle opacity="0.5" fill="#231F20" cx="114.4" cy="65.9" r="1.2"/>
			<circle fill="#A33559" cx="120.4" cy="65.9" r="1.2"/>
			<circle opacity="0.5" fill="#231F20" cx="120.4" cy="65.9" r="1.2"/>
			<circle fill="#A33559" cx="126.4" cy="65.9" r="1.2"/>
			<circle opacity="0.5" fill="#231F20" cx="126.4" cy="65.9" r="1.2"/>
			<circle fill="#A33559" cx="132.3" cy="65.9" r="1.2"/>
			<circle opacity="0.5" fill="#231F20" cx="132.3" cy="65.9" r="1.2"/>
		</g>
		<rect x="104.7" y="21.5" fill="#393938" width="4.8" height="41.8"/>
		<polyline fill="#4D4D4F" stroke="#FFFFFF" stroke-width="0.1357" stroke-miterlimit="10" points="104.7,22.5 108.3,22.5 
			108.3,38.9 104.7,38.9 		"/>
		<rect x="109.5" y="21.5" fill="#414042" width="22.4" height="41.8"/>
		<rect x="104.7" y="41.8" fill="#4D4D4F" width="3.8" height="18.7"/>
		<rect x="131.9" y="21.5" fill="#393938" width="4.8" height="41.8"/>
		<polyline fill="#4D4D4F" stroke="#FFFFFF" stroke-width="0.1357" stroke-miterlimit="10" points="136.7,22.5 133.1,22.5 
			133.1,38.9 136.7,38.9 		"/>
		<rect x="132.9" y="41.8" fill="#4D4D4F" width="3.8" height="18.7"/>
	</g>
</g>
</svg>
