<?xml version="1.0" encoding="utf-8"?>
<!-- Generator: Adobe Illustrator 18.0.0, SVG Export Plug-In . SVG Version: 6.00 Build 0)  -->
<!DOCTYPE svg PUBLIC "-//W3C//DTD SVG 1.1//EN" "http://www.w3.org/Graphics/SVG/1.1/DTD/svg11.dtd">
<svg version="1.1" id="Capa_1" xmlns="http://www.w3.org/2000/svg" xmlns:xlink="http://www.w3.org/1999/xlink" x="0px" y="0px"
	 viewBox="0 0 456.2 305.1" enable-background="new 0 0 456.2 305.1" xml:space="preserve">
<g>
	<circle fill="#771B28" cx="73.4" cy="98.6" r="73.4"/>
	<path opacity="0.2" fill="#272525" d="M141.1,126.8L89.2,61.9L45.8,137l29.9,34.8C105.2,170.9,130.3,152.6,141.1,126.8z"/>
	<g>
		<circle fill="none" stroke="#D9DADB" stroke-width="2.7866" stroke-miterlimit="10" cx="51.4" cy="61.1" r="11.7"/>
		
			<rect x="52.4" y="65" transform="matrix(0.9089 -0.4171 0.4171 0.9089 -25.0997 30.2456)" fill="#FFFFFF" stroke="#828385" stroke-width="1.3933" stroke-miterlimit="10" width="8.5" height="15.2"/>
		
			<rect x="77.3" y="60.8" transform="matrix(0.981 0.1939 -0.1939 0.981 14.6663 -14.7352)" fill="#FFFFFF" stroke="#828385" stroke-width="1.3933" stroke-miterlimit="10" width="10.7" height="13.6"/>
		<circle fill="#97989B" stroke="#737476" stroke-width="1.3933" stroke-miterlimit="10" cx="73.4" cy="109" r="38.7"/>
		<circle fill="#FFFFFF" stroke="#828385" stroke-width="1.3933" stroke-miterlimit="10" cx="73.4" cy="109" r="29.7"/>
		<line fill="none" stroke="#828385" stroke-width="2.7866" stroke-miterlimit="10" x1="64.8" y1="90.8" x2="72.4" y2="107.5"/>
		<line fill="none" stroke="#CC203E" stroke-width="1.3933" stroke-miterlimit="10" x1="73.5" y1="107.9" x2="66" y2="122.5"/>
		<line fill="none" stroke="#828385" stroke-width="2.7866" stroke-miterlimit="10" x1="78.6" y1="96.6" x2="74.5" y2="107.7"/>
		<circle fill="#696A6C" stroke="#828385" stroke-width="1.3933" stroke-miterlimit="10" cx="73.4" cy="109" r="2.9"/>
		<line fill="none" stroke="#828385" stroke-width="1.3933" stroke-miterlimit="10" x1="61" y1="81.4" x2="62.9" y2="85.6"/>
		<line fill="none" stroke="#828385" stroke-width="1.3933" stroke-miterlimit="10" x1="84" y1="131.6" x2="85.9" y2="135.7"/>
		<line fill="none" stroke="#828385" stroke-width="1.3933" stroke-miterlimit="10" x1="83.7" y1="80.8" x2="82.1" y2="85.2"/>
		<line fill="none" stroke="#828385" stroke-width="1.3933" stroke-miterlimit="10" x1="64.7" y1="132" x2="63" y2="136.7"/>
		<line fill="none" stroke="#828385" stroke-width="1.3933" stroke-miterlimit="10" x1="100.6" y1="96.1" x2="96.4" y2="98"/>
		<line fill="none" stroke="#828385" stroke-width="1.3933" stroke-miterlimit="10" x1="50" y1="99.9" x2="45.7" y2="98.3"/>
		<line fill="none" stroke="#828385" stroke-width="1.3933" stroke-miterlimit="10" x1="101.2" y1="118.9" x2="96.9" y2="117.3"/>
		<line fill="none" stroke="#828385" stroke-width="1.3933" stroke-miterlimit="10" x1="50.5" y1="119.1" x2="46.3" y2="121"/>
		<path fill="#FFFFFF" stroke="#828385" stroke-width="1.3933" stroke-miterlimit="10" d="M57.6,65.3l-7.1,3.2
			c-0.7,0.3-1.5,0-1.8-0.7l-3.2-7.1c-0.3-0.7,0-1.5,0.7-1.8l7.1-3.2c0.7-0.3,1.5,0,1.8,0.7l3.2,7.1C58.6,64.2,58.3,65,57.6,65.3z"/>
		<path fill="none" stroke="#828385" stroke-width="1.3933" stroke-miterlimit="10" d="M78.2,62.7c-0.7,3.9,9.2,5.7,10.4,1.8"/>
		<line fill="#FFFFFF" stroke="#828385" stroke-width="1.3933" stroke-miterlimit="10" x1="46.5" y1="58.8" x2="50.7" y2="67.9"/>
		<line fill="#FFFFFF" stroke="#828385" stroke-width="1.3933" stroke-miterlimit="10" x1="48.2" y1="58" x2="52.4" y2="67.2"/>
		<line fill="#FFFFFF" stroke="#828385" stroke-width="1.3933" stroke-miterlimit="10" x1="49.9" y1="57.2" x2="54.1" y2="66.4"/>
		<line fill="#FFFFFF" stroke="#828385" stroke-width="1.3933" stroke-miterlimit="10" x1="51.5" y1="56.5" x2="55.7" y2="65.6"/>
		<line fill="#FFFFFF" stroke="#828385" stroke-width="1.3933" stroke-miterlimit="10" x1="53.2" y1="55.7" x2="57.4" y2="64.9"/>
	</g>
</g>
<g>
	<circle fill="#FFFFFF" cx="242.4" cy="173.8" r="131.3"/>
	<circle fill="#AA212E" cx="242.4" cy="173.8" r="127.7"/>
	<path opacity="0.2" fill="#272525" d="M370.2,173.8c0-7.2-0.6-14.4-1.8-21.3l-44.7-45.4l-95.7,131.5l-11.8,2.5l56.7,56.7
		C328.7,284.3,370.2,233.9,370.2,173.8z"/>
	<g>
		<path fill-rule="evenodd" clip-rule="evenodd" fill="#E6E6E7" d="M216.1,241.2v-2.1l6.5-0.8l4.5-17.2h33.4l4.5,17.2l6.5,0.8v2.1
			H216.1z"/>
		<path opacity="0.12" fill-rule="evenodd" clip-rule="evenodd" fill="#252525" d="M226.5,224.4l0.6-3.3h33.4l0.6,3.3H226.5z"/>
		<path fill-rule="evenodd" clip-rule="evenodd" fill="#4A494B" d="M159.6,206.8v-96.6c0-2.1,1.7-3.7,3.7-3.7h158.2
			c2.1,0,3.7,1.7,3.7,3.7v96.6H159.6z"/>
		<path fill-rule="evenodd" clip-rule="evenodd" fill="#E6E6E7" d="M321.5,221.7H163.3c-2.1,0-3.7-1.7-3.7-3.7v-11.2h165.7V218
			C325.3,220,323.6,221.7,321.5,221.7z"/>
		<path fill-rule="evenodd" clip-rule="evenodd" fill="#EBF5FD" d="M320.1,113v87.3H164.7V113H320.1z"/>
		<rect x="190.8" y="141.9" fill="#EAB331" width="14.7" height="58.5"/>
		<rect x="213" y="154.8" fill="#EAB331" width="14.7" height="45.5"/>
		<rect x="235.1" y="166.4" fill="#EAB331" width="14.7" height="33.7"/>
		<rect x="258" y="175.5" fill="#EAB331" width="14.7" height="24.7"/>
		<rect x="280.8" y="182.7" fill="#EAB331" width="14.7" height="17.6"/>
	</g>
</g>
<rect x="262" y="133.6" fill="#BFC1C3" width="33.4" height="2.5"/>
<rect x="262" y="138.5" fill="#BFC1C3" width="33.4" height="2.5"/>
<circle fill="#FFFFFF" cx="374" cy="82.2" r="82.2"/>
<circle fill="#DC1F26" cx="374" cy="82.2" r="79.1"/>
<path opacity="0.2" fill="#272525" d="M450,103.8l-22.2-22.2l-76.2,28.1l-10.4,17.2l34.3,34.3C411,160.6,440.7,136.5,450,103.8z"/>
<g>
	<path fill="#771B28" d="M334.8,101.7c0,0,2.8,21.7,6.3,25.2c4.9,0,15.4-0.7,15.4-0.7s-8.4-19.6-5.6-22.4
		C353.8,101,339,93.3,334.8,101.7z"/>
	<path fill="#771B28" d="M387.4,101.7c0,0,2.8,21.7,6.3,25.2c4.9,0,15.4-0.7,15.4-0.7s-8.4-19.6-5.6-22.4
		C406.3,101,391.6,93.3,387.4,101.7z"/>
	<ellipse fill="#771B28" cx="374.3" cy="89.3" rx="44.6" ry="31"/>
	<path fill="#771B28" d="M332.7,82.1c-6.8-0.6-7-6.5-1.8-10.5c-1.3,2.1-1.4,5.9,3.2,7L332.7,82.1z"/>
	<path fill="#771B28" d="M397.4,62.5c0,0,19.1,3,23.5,19.1c3.5,1,7,0,7,0s1.7,12.1-3.5,14.1c-3.5,2-8.7,14.1-27,17.1"/>
	<path fill="#771B28" d="M385.3,62.8c1.4-7-0.7-20.3,15.1,0.4"/>
	<path fill="#771B28" d="M396.5,62.1c-2.5,1.4,4.9-6.3,12.3-6c-2.5,3.9-1.8,10.9,1.1,13"/>
</g>
<circle fill="#FFFFFF" cx="406.6" cy="81.1" r="3.9"/>
<g>
	<path fill="#FFFFFF" d="M353.6,66.3C353.6,66.3,353.6,66.3,353.6,66.3l-0.1,0.1c0,0,0,0.1-0.1,0C353.5,66.2,353.5,66.3,353.6,66.3
		c0.1-0.2,0.3-0.5,0.6-0.8c0.6-0.6,1.5-1.3,2.7-2c0.6-0.4,1.3-0.7,2-1c0.7-0.3,1.5-0.7,2.4-0.9c0.8-0.3,1.7-0.5,2.6-0.7
		c0.9-0.2,1.8-0.3,2.8-0.4c0.9-0.1,1.9-0.1,2.8-0.2c0.9,0,1.8,0,2.7,0.1c0.9,0.1,1.7,0.2,2.5,0.3c0.8,0.1,1.5,0.3,2.2,0.4
		c0.7,0.1,1.3,0.3,1.8,0.5c0.5,0.2,1,0.3,1.4,0.5c0.8,0.3,1.2,0.5,1.2,0.5s-0.5,0-1.3,0.1c-0.8,0-1.9,0-3.3,0.1c-0.7,0-1.4,0-2.2,0
		c-0.8,0-1.6,0.1-2.4,0.1c-0.8,0-1.7,0.1-2.6,0.1c-0.9,0.1-1.7,0.1-2.6,0.2c-1.8,0.2-3.5,0.4-5.1,0.7c-1.6,0.3-3.1,0.7-4.4,1
		c-1.3,0.4-2.3,0.7-3.1,1C354.1,66.1,353.8,66.2,353.6,66.3C353.6,66.3,353.5,66.4,353.6,66.3C353.4,66.3,353.5,66.3,353.6,66.3
		C353.5,66.3,353.6,66.3,353.6,66.3z"/>
</g>
<circle fill="#E7AA33" cx="364.1" cy="53.9" r="8.2"/>
<text transform="matrix(0.9027 -0.4303 0.4303 0.9027 362.8964 58.5877)" fill="#FFFFFF" font-family="'ProximaNova-Semibold'" font-size="12.6092">$</text>
<circle fill="#E7AA33" cx="373.5" cy="34.2" r="6.1"/>
<text transform="matrix(0.9027 -0.4303 0.4303 0.9027 372.6569 37.6966)" fill="#FFFFFF" font-family="'ProximaNova-Semibold'" font-size="9.3228">$</text>
<circle fill="#E7AA33" cx="352.7" cy="31.8" r="6.8"/>
<text transform="matrix(0.9027 -0.4303 0.4303 0.9027 351.7037 35.6644)" fill="#FFFFFF" font-family="'ProximaNova-Semibold'" font-size="10.3447">$</text>
</svg>
