<?xml version="1.0" encoding="utf-8"?>
<!-- Generator: Adobe Illustrator 18.0.0, SVG Export Plug-In . SVG Version: 6.00 Build 0)  -->
<!DOCTYPE svg PUBLIC "-//W3C//DTD SVG 1.1//EN" "http://www.w3.org/Graphics/SVG/1.1/DTD/svg11.dtd">
<svg version="1.1" id="Layer_1" xmlns="http://www.w3.org/2000/svg" xmlns:xlink="http://www.w3.org/1999/xlink" x="0px" y="0px"
	 viewBox="0 0 310.8 255.5" enable-background="new 0 0 310.8 255.5" xml:space="preserve">
<circle fill="#B40021" cx="57" cy="87" r="57"/>
<circle fill="#B40021" cx="254.6" cy="85.5" r="56.2"/>
<g>
	<g opacity="0.2">
		<path fill="#2A2324" d="M100.8,123.7c7.4-9.4,12-21.7,13-32.7c-4.5-4.8-17.1-16.7-17.1-16.7c-33.5-31.6-67.3-7.9-73.1-2.6
			c-0.5,0.5-5.7,4.5-5.7,4.5s18.4,18.3,21.7,21.9l17.9,11l-5.2,7.9c0,0,20.9,17.3,26.5,22.7C88.6,137,100.8,123.7,100.8,123.7z"/>
	</g>
</g>
<path fill="#EA0000" d="M216.2,58.7c-0.9,30.6-26,55.1-56.9,55.1c-31.4,0-56.9-25.5-56.9-56.9c0-31.4,25.5-56.9,56.9-56.9
	c31.4,0,56.9,25.5,56.9,56.9C216.2,57.5,216.2,58.1,216.2,58.7"/>
<line fill="#BEA32A" x1="224.8" y1="179.4" x2="96.7" y2="179.4"/>
<polyline points="96.7,207.3 96.7,255.5 224.8,255.5 224.8,207.3 "/>
<polygon points="224.8,179.4 231.4,207.3 90.5,207.3 96.7,179.4 96.7,179.4 "/>
<polygon points="97.6,179.4 77.8,207.3 75.1,205.4 94.1,179.4 "/>
<polygon points="223.9,179.4 243.7,207.3 246.4,205.4 227.4,179.4 "/>
<path fill="#3A3A3A" d="M129.7,176.6c0,0,4.5-24.6-11.1-33.8c4.3-5,7.2-8.5,7.2-8.5l-20.2,0.5l0.5,20.4l7-7.2
	C113.1,147.9,123.8,150.5,129.7,176.6z"/>
<path fill="#3A3A3A" d="M186.6,176.6c0,0-4.5-24.6,11.1-33.8c-4.3-5-7.2-8.5-7.2-8.5l20.2,0.5l-0.5,20.4l-7-7.2
	C203.3,147.9,192.5,150.5,186.6,176.6z"/>
<path fill="#3A3A3A" d="M158.7,164.3c0,0,2-13.4,3-31c6.6-0.4,11.4-1.4,11.4-1.4l-14.5-14.1l-14.3,14.6l10.2,0.9
	C154.5,133.4,155.4,144.9,158.7,164.3z"/>
<g>
	<circle fill="#FFFFFF" cx="57.1" cy="112.1" r="7"/>
	<g>
		<path fill="#FFFFFF" d="M39.8,98.1c-1-1-0.9-2.3-0.4-3.1l0.1-0.1l0.1-0.1c9.6-9.6,25.2-9.6,34.8-0.1c0.8,0.9,0.9,2.3-0.1,3.3
			c-1,1-2.4,0.9-3.2,0.2c-7.8-7.8-20.3-7.8-28-0.1L43,98.4C42.1,99,40.8,99.1,39.8,98.1z"/>
		<path fill="#FFFFFF" d="M72.1,97.2c0,0,0.6,0.5,1.3-0.1c0.6-0.6,0.1-1.3,0.1-1.3c-9-9-23.7-9-32.7,0c0,0,0,0-0.1,0.1
			c0,0-0.4,0.7,0.1,1.3c0.6,0.6,1.3,0.1,1.3,0.1c0,0,0,0,0.1-0.1C50.4,88.9,63.8,88.9,72.1,97.2z"/>
	</g>
	<g>
		<path fill="#FFFFFF" d="M29.1,87.2c-1-1-0.9-2.3-0.2-3.2l0.9-1.1l0.1-0.1c15.1-15.1,39.5-15.1,54.5-0.1l0.1,0.1l0.1,0.1
			c0.6,0.8,0.7,2.1-0.2,3.1c-0.9,0.9-2.1,0.9-3,0.5l-0.2-0.1l-0.2-0.2c-13.1-13.1-34.4-13.1-47.6,0l-1.1,1.2
			C31.4,88.1,30,88.2,29.1,87.2z"/>
		<path fill="#FFFFFF" d="M81.9,85.3c0,0,0.8,0.4,1.3-0.2c0.6-0.6,0.1-1.2,0.1-1.2c-14.5-14.5-38-14.5-52.4,0c0,0,0,0-0.1,0.1
			c0,0-0.5,0.7,0.1,1.3c0.6,0.6,1.3,0.1,1.3,0.1c0,0,0,0,0.1-0.1C46,71.6,68.2,71.6,81.9,85.3z"/>
	</g>
	<g>
		<path fill="#FFFFFF" d="M18.1,76.4c-1.1-1.1-0.9-2.6-0.1-3.3C39.6,51.5,74.6,51.5,96.2,73l0.1,0.1l0.1,0.2c0.5,0.8,0.6,2.1-0.4,3
			c-0.9,0.9-2.2,0.8-3,0.4l-0.2-0.1l-0.1-0.1c-19.6-19.6-51.6-19.6-71.2,0C20.7,77.3,19.2,77.6,18.1,76.4z"/>
		<path fill="#FFFFFF" d="M20.5,75.5c20.2-20.2,53-20.2,73.2,0c0,0,0.7,0.4,1.3-0.1c0.6-0.6,0.1-1.3,0.1-1.3c-21-21-55.1-21-76.1,0
			c0,0,0,0-0.1,0.1c0,0-0.6,0.6,0.1,1.3C19.9,76.1,20.4,75.5,20.5,75.5C20.5,75.5,20.5,75.5,20.5,75.5z"/>
	</g>
</g>
<rect x="125.2" y="44.3" fill="#FFFFFF" width="68.5" height="41.7"/>
<g>
	<path fill="#B0B0B0" d="M193.7,44h-68.6c0,0,0-12,0-13c0-1,0.5-1.6,1.6-1.6c1,0,67.1,0,67.1,0V44z"/>
	<path fill="none" stroke="#000000" stroke-miterlimit="10" d="M125,44c0.5,0,68.7,0,68.7,0"/>
	<path fill="#FFFFFF" stroke="#000000" stroke-miterlimit="10" d="M193.7,44"/>
	<circle fill="#EA1000" cx="135.4" cy="36.1" r="4.5"/>
	<circle fill="#EECC00" cx="149.7" cy="36.1" r="4.5"/>
	<circle fill="#84D262" cx="163.7" cy="36.2" r="4.5"/>
	<g>
		<path fill="#EA1000" d="M139.3,61l9.9-5.1v1.5l-8.4,4.2v0l8.4,4.2v1.5l-9.9-5.1V61z"/>
		<path fill="#EA1000" d="M150.6,68.1l6-15.5h1.5l-6,15.5H150.6z"/>
		<path fill="#EA1000" d="M169.3,62.1l-9.9,5.1v-1.5l8.4-4.2v0l-8.4-4.2v-1.5l9.9,5.1V62.1z"/>
	</g>
</g>
<line fill="none" stroke="#3A3A3A" stroke-miterlimit="10" x1="96.7" y1="207.3" x2="224.8" y2="207.3"/>
<g>
	<g opacity="0.2">
		<path fill="#2A2324" d="M275.8,113.9V57.2l33.8,17.4c1.6,7.7,3.2,22.5-6.4,39.1l-0.6,1.1c-0.1,0.2-0.2,0.4-0.3,0.6
			c-6.1,9.2-18.2,19.8-25.3,21.6c-7-3.9-44.1-23.4-44.1-23.4L275.8,113.9z"/>
	</g>
</g>
<path fill="#2A2324" d="M277.1,137"/>
<g>
	<g>
		<g id="XMLID_1_">
			<g>
				<path fill="#B0B0B0" d="M287.9,104.5v4.6c0,0.6-0.5,1.1-1.1,1.1h-10.4v-2.2h9.3v-2.4h-9.3v-2.2h10.4
					C287.4,103.4,287.9,103.9,287.9,104.5z"/>
				<path fill="#B0B0B0" d="M287.9,89.5V94c0,0.6-0.5,1.1-1.1,1.1h-10.4v-2.2h9.3v-2.4h-9.3v-2.2h10.4
					C287.4,88.4,287.9,88.9,287.9,89.5z"/>
				<path fill="#B0B0B0" d="M287.9,75.4V80c0,0.6-0.5,1.1-1.1,1.1h-10.4v-2.2h9.3v-2.4h-9.3v-2.2h10.4
					C287.4,74.3,287.9,74.8,287.9,75.4z"/>
				<path fill="#B0B0B0" d="M287.9,62.2v4.6c0,0.6-0.5,1.1-1.1,1.1h-10.4v-2.2h9.3v-2.4h-9.3v-2.2h10.4
					C287.4,61.1,287.9,61.6,287.9,62.2z"/>
				<path fill="#B0B0B0" d="M285.7,105.6v2.4h-9.3c0-0.7,0-1.5,0-2.4H285.7z"/>
				<path fill="#B0B0B0" d="M285.7,90.6v2.4h-9.3c0-0.8,0-1.6,0-2.4H285.7z"/>
				<path fill="#B0B0B0" d="M285.7,76.5v2.4h-9.3c0-0.8,0-1.6,0-2.4H285.7z"/>
				<path fill="#B0B0B0" d="M285.7,63.3v2.4h-9.3c0-0.8,0-1.6,0-2.4H285.7z"/>
				<path d="M276.3,110.1c0,1.5,0,2.4,0,2.5c0,0.8-0.3,1.6-1.2,1.6c-0.2,0-33.7,0-40.9,0c-1.5,0-1.4-1.6-1.4-1.6V110v-2.2v-2.4v-2.2
					v-8.2v-2.2v-2.4v-2.2V81v-2.2v-2.4v-2.2v-6.4v-2.2v-2.4V61v-1.8c0,0,0-0.2,0-0.8c0-1,0.5-1.5,1.2-1.5c0.7,0,34.3,0,41.1,0
					c0.8,0,1.2,0.6,1.2,1.6c0,0.7,0,1.6,0,2.7v2.2c0,0.7,0,1.5,0,2.4v2.2c0,2,0,4.1,0,6.4v2.2c0,0.8,0,1.6,0,2.4v2.2
					c0,2.4,0,4.9,0,7.3v2.2c0,0.8,0,1.6,0,2.4v2.2c0,3,0,5.8,0,8.2v2.2c0,0.9,0,1.7,0,2.4V110.1z"/>
				<path fill="#B0B0B0" d="M232.8,107.9v2.2h-10.4c-0.6,0-1.1-0.5-1.1-1.1v-4.6c0-0.6,0.5-1.1,1.1-1.1h10.4v2.2h-9.3v2.4H232.8z"/>
				<rect x="223.5" y="105.5" fill="#B0B0B0" width="9.3" height="2.4"/>
				<path fill="#B0B0B0" d="M232.8,92.9v2.2h-10.4c-0.6,0-1.1-0.5-1.1-1.1v-4.6c0-0.6,0.5-1.1,1.1-1.1h10.4v2.2h-9.3v2.4H232.8z"/>
				<rect x="223.5" y="90.5" fill="#B0B0B0" width="9.3" height="2.4"/>
				<path fill="#B0B0B0" d="M232.8,78.8V81h-10.4c-0.6,0-1.1-0.5-1.1-1.1v-4.6c0-0.6,0.5-1.1,1.1-1.1h10.4v2.2h-9.3v2.4H232.8z"/>
				<rect x="223.5" y="76.4" fill="#B0B0B0" width="9.3" height="2.4"/>
				<path fill="#B0B0B0" d="M232.8,65.6v2.2h-10.4c-0.6,0-1.1-0.5-1.1-1.1v-4.6c0-0.6,0.5-1.1,1.1-1.1h10.4v2.2h-9.3v2.4H232.8z"/>
				<rect x="223.5" y="63.2" fill="#B0B0B0" width="9.3" height="2.4"/>
			</g>
			<g>
			</g>
		</g>
	</g>
</g>
<g>
	<g opacity="0.2">
		<path fill="#2A2324" d="M194.4,87V30.4L214.7,44c1.5,5.2,4.2,23.2-5.8,40.9c-8.2,14.4-19.7,21.9-35.7,27.3
			c-7-3.9-47.1-25.3-47.1-25.3L194.4,87z"/>
	</g>
</g>
<path fill="#FFFFFF" d="M74.3,98"/>
<path fill="#2A2324" d="M208.9,88"/>
</svg>
