<?xml version="1.0" encoding="utf-8"?>
<!-- Generator: Adobe Illustrator 18.0.0, SVG Export Plug-In . SVG Version: 6.00 Build 0)  -->
<!DOCTYPE svg PUBLIC "-//W3C//DTD SVG 1.1//EN" "http://www.w3.org/Graphics/SVG/1.1/DTD/svg11.dtd">
<svg version="1.1" id="svg4101" xmlns="http://www.w3.org/2000/svg" xmlns:xlink="http://www.w3.org/1999/xlink" x="0px" y="0px"
	 viewBox="11.4 12.7 216.4 274.4" enable-background="new 11.4 12.7 216.4 274.4" xml:space="preserve">
<g id="layer1" transform="translate(-317.72197,-178.00957)" inkscape:groupmode="layer" inkscape:label="Ebene 1">
	<g id="g4068" transform="matrix(2.8428417,1.4908353,-1.4908353,2.8428417,85.009337,-2057.1417)">
		<g id="g4046" transform="matrix(0.83109018,-0.84335752,0.84335752,0.83109018,-425.72131,478.52845)">
			<path id="path3194" inkscape:connector-curvature="0" d="M443.7,563.6c-1.1,0-2.1,0.1-3.1,0.2l0.1,2.8c1-0.1,2-0.2,3-0.2
				c12.8,0.2,23.1,11.6,22.9,25.5c0,0.2,0,0.4,0,0.5l2.5,0c0-0.2,0-0.3,0-0.5C469.2,576.4,457.9,563.7,443.7,563.6L443.7,563.6z"/>
			<path id="path3194-4" sodipodi:nodetypes="cccscccccc" inkscape:connector-curvature="0" d="M442.9,570.5c-0.8,0-1.6,0-2.4,0.1
				l0,2.5c0.8-0.1,1.5-0.1,2.3-0.1c9.7,0.1,17,8.3,16.8,18.9c0,0.1,0,0.3,0,0.4l2.5,0c0-0.1,0-0.2,0-0.4
				C462.3,580.3,453.7,570.7,442.9,570.5L442.9,570.5z"/>
			<path id="path3194-0" sodipodi:nodetypes="cccccccccc" inkscape:connector-curvature="0" d="M442.2,576.9c-0.6,0-1.1,0-1.7,0.1
				l0,2.4c0.5-0.1,1.1-0.1,1.6-0.1c6.9,0.5,10.9,5.1,11.1,12.8c0,0.1,0,0.2,0,0.3l2.5,0c0-0.1,0-0.2,0-0.3
				C456,583.8,449.9,577,442.2,576.9L442.2,576.9z"/>
		</g>
		<g id="g4061" transform="translate(4.3272904,0)">
			<path id="path4401" inkscape:connector-curvature="0" d="M428.8,632.5c1.5,8.4,3.2,16.7,3.3,25.9c13.4-7.1,16.2-8.6,29.7-15.7
				c-4.8-3.4-9.6-7.4-13.6-11.2C442.1,633.4,435.8,634.1,428.8,632.5L428.8,632.5z M431.9,636.1l2.9,0.3c1.7,7.7,1.2,15.1-0.2,18.6
				C434,648.9,433.7,644.6,431.9,636.1z"/>
			<path id="path3423-9-5" inkscape:connector-curvature="0" d="M398.1,602.8c5.5,15.3,20.1,26.3,37.2,26.3
				c17.2,0.1,31.8-10.8,37.4-26.1L398.1,602.8L398.1,602.8z M404.2,607.2l6.6,0.2c4.5,8.2,9.1,11.8,15.4,16.8
				C417.1,621.5,409.3,616.4,404.2,607.2z"/>
			<g id="g4055" transform="translate(2.1996971,2)">
				<rect id="rect4051" x="431.6" y="594.8" width="3.3" height="8.1"/>
				
					<path id="path4053" sodipodi:cy="594.00549" sodipodi:cx="433.22916" sodipodi:rx="3.4092648" sodipodi:ry="3.7880721" sodipodi:type="arc" d="
					M436.6,594c0,2.1-1.5,3.8-3.4,3.8s-3.4-1.7-3.4-3.8s1.5-3.8,3.4-3.8C435.1,590.2,436.6,591.9,436.6,594z"/>
			</g>
		</g>
	</g>
</g>
</svg>
